<svg width="40" height="40" viewBox="0 0 40 40" fill="none" xmlns="http://www.w3.org/2000/svg">
  <rect width="40" height="40" rx="8" fill="#252422"/>
  <path d="M20 10C14.48 10 10 14.48 10 20C10 25.52 14.48 30 20 30C25.52 30 30 25.52 30 20C30 14.48 25.52 10 20 10ZM20 28C15.58 28 12 24.42 12 20C12 15.58 15.58 12 20 12C24.42 12 28 15.58 28 20C28 24.42 24.42 28 20 28Z" fill="#EB5E28"/>
  <path d="M20 16C17.79 16 16 17.79 16 20C16 22.21 17.79 24 20 24C22.21 24 24 22.21 24 20C24 17.79 22.21 16 20 16ZM20 22C18.9 22 18 21.1 18 20C18 18.9 18.9 18 20 18C21.1 18 22 18.9 22 20C22 21.1 21.1 22 20 22Z" fill="#EB5E28"/>
  <path d="M26.5355 6.46447L33.5355 13.4645L31.4142 15.5858L24.4142 8.58579L26.5355 6.46447Z" fill="#EB5E28"/>
  <path d="M8 22H12V18H8V22Z" fill="#EB5E28"/>
</svg>